<svg width="50" height="50" viewBox="0 0 50 50" fill="none" xmlns="http://www.w3.org/2000/svg">
<rect width="50" height="50" rx="16" fill="url(#paint0_linear_8813_58428)"/>
<path d="M34.9629 31.855C34.8294 32.4288 34.5145 32.9443 34.0649 33.325C33.563 33.8355 32.9639 34.2402 32.303 34.5154C31.6421 34.7905 30.9328 34.9305 30.2169 34.927H29.8589C28.373 34.8496 26.9166 34.482 25.5719 33.845C25.2459 33.692 24.9289 33.549 24.5519 33.375C22.976 32.4849 21.5295 31.383 20.2529 30.1C18.5935 28.5437 17.2336 26.6961 16.2409 24.649C15.6944 23.5322 15.3263 22.3367 15.1499 21.106C14.9035 19.8235 15.0492 18.4965 15.5679 17.298C15.8906 16.7539 16.2855 16.256 16.7419 15.818C16.9504 15.5906 17.2025 15.4074 17.4832 15.2794C17.7639 15.1514 18.0675 15.0812 18.3759 15.073C18.7122 15.1085 19.038 15.2109 19.3342 15.374C19.6305 15.5372 19.8911 15.7578 20.1009 16.023C20.5709 16.543 21.1209 17.043 21.6209 17.573L22.2649 18.207C22.6449 18.54 22.8799 19.009 22.9179 19.513C22.9189 19.977 22.7479 20.424 22.4379 20.769C22.2427 21.0109 22.0351 21.2426 21.8159 21.463L21.6009 21.688C21.4757 21.8043 21.378 21.9471 21.3149 22.106C21.2629 22.26 21.2449 22.424 21.2649 22.586C21.4289 23.03 21.6859 23.434 22.0199 23.77C22.5399 24.474 23.0399 25.087 23.6019 25.812C24.5712 26.9303 25.7203 27.879 27.0019 28.619C27.1249 28.719 27.2719 28.786 27.4299 28.813C27.5699 28.834 27.7109 28.813 27.8379 28.751C28.2273 28.5426 28.5738 28.2623 28.8589 27.925C29.2189 27.481 29.7409 27.199 30.3089 27.138C30.5816 27.139 30.8512 27.1947 31.102 27.3017C31.3528 27.4087 31.5795 27.5649 31.7689 27.761C32.0023 27.9623 32.2233 28.1767 32.4319 28.404L32.7379 28.731L33.0549 29.037C33.2479 29.231 33.4319 29.405 33.6149 29.609C33.9483 29.8957 34.2583 30.2053 34.5449 30.538C34.8379 30.912 34.9859 31.38 34.9629 31.855Z" fill="white"/>
<defs>
<linearGradient id="paint0_linear_8813_58428" x1="-4.55975" y1="-39.7959" x2="62.2768" y2="-29.3186" gradientUnits="userSpaceOnUse">
<stop stop-color="#FF7220"/>
<stop offset="1" stop-color="#FFB600"/>
</linearGradient>
</defs>
</svg>
