<svg width="80" height="80" viewBox="0 0 80 80" fill="none" xmlns="http://www.w3.org/2000/svg">
<rect width="80" height="80" rx="16" fill="url(#paint0_linear_8813_58484)"/>
<path d="M44.7491 25.5913C45.5359 25.8505 46.3839 25.4228 46.643 24.6359C46.9022 23.8491 46.4745 23.0011 45.6876 22.7419L45.2183 24.1666L44.7491 25.5913ZM57.3344 34.5506C57.0862 33.7602 56.2443 33.3207 55.4539 33.5689C54.6636 33.8171 54.224 34.659 54.4722 35.4494L55.9033 35L57.3344 34.5506ZM49.833 40C49.833 39.1716 49.1614 38.5 48.333 38.5C47.5046 38.5 46.833 39.1716 46.833 40H48.333H49.833ZM39.9997 33.1666C40.8281 33.1666 41.4997 32.4951 41.4997 31.6666C41.4997 30.8382 40.8281 30.1666 39.9997 30.1666V31.6666V33.1666ZM38.939 38.9393C38.3532 39.5251 38.3532 40.4749 38.939 41.0606C39.5248 41.6464 40.4745 41.6464 41.0603 41.0606L39.9997 40L38.939 38.9393ZM53.9997 23.3333C53.9997 22.5049 53.3281 21.8333 52.4997 21.8333C51.6712 21.8333 50.9997 22.5049 50.9997 23.3333H52.4997H53.9997ZM56.6663 29C57.4948 29 58.1663 28.3284 58.1663 27.5C58.1663 26.6716 57.4948 26 56.6663 26V27.5V29ZM45.2183 24.1666L45.6876 22.7419C43.8964 22.1519 41.9838 21.8333 39.9997 21.8333V23.3333V24.8333C41.6609 24.8333 43.2569 25.0999 44.7491 25.5913L45.2183 24.1666ZM39.9997 23.3333V21.8333C29.9665 21.8333 21.833 29.9668 21.833 40H23.333H24.833C24.833 31.6237 31.6233 24.8333 39.9997 24.8333V23.3333ZM23.333 40H21.833C21.833 50.0331 29.9665 58.1666 39.9997 58.1666V56.6666V55.1666C31.6234 55.1666 24.833 48.3762 24.833 40H23.333ZM39.9997 56.6666V58.1666C50.0328 58.1666 58.1663 50.0331 58.1663 40H56.6663H55.1663C55.1663 48.3762 48.3759 55.1666 39.9997 55.1666V56.6666ZM56.6663 40H58.1663C58.1663 38.1037 57.8752 36.2726 57.3344 34.5506L55.9033 35L54.4722 35.4494C54.9228 36.8841 55.1663 38.4122 55.1663 40H56.6663ZM48.333 40H46.833C46.833 43.7739 43.7736 46.8333 39.9997 46.8333V48.3333V49.8333C45.4304 49.8333 49.833 45.4307 49.833 40H48.333ZM39.9997 48.3333V46.8333C36.2257 46.8333 33.1663 43.7739 33.1663 40H31.6663H30.1663C30.1663 45.4307 34.5689 49.8333 39.9997 49.8333V48.3333ZM31.6663 40H33.1663C33.1663 36.226 36.2257 33.1666 39.9997 33.1666V31.6666V30.1666C34.5689 30.1666 30.1663 34.5692 30.1663 40H31.6663ZM52.4997 27.5L51.439 26.4393L38.939 38.9393L39.9997 40L41.0603 41.0606L53.5603 28.5606L52.4997 27.5ZM52.4997 27.5H53.9997V23.3333H52.4997H50.9997V27.5H52.4997ZM52.4997 27.5V29H56.6663V27.5V26H52.4997V27.5Z" fill="white"/>
<defs>
<linearGradient id="paint0_linear_8813_58484" x1="-7.2956" y1="-63.6735" x2="99.6428" y2="-46.9098" gradientUnits="userSpaceOnUse">
<stop stop-color="#FF7220"/>
<stop offset="1" stop-color="#FFB600"/>
</linearGradient>
</defs>
</svg>
