<svg width="50" height="50" viewBox="0 0 50 50" fill="none" xmlns="http://www.w3.org/2000/svg">
<rect width="50" height="50" rx="12" fill="url(#paint0_linear_8813_57488)"/>
<path d="M20 30V26M25 30V20M30 30V24M15.5 25C15.5 20.5217 15.5 18.2825 16.8912 16.8912C18.2825 15.5 20.5217 15.5 25 15.5C29.4783 15.5 31.7175 15.5 33.1088 16.8912C34.5 18.2825 34.5 20.5217 34.5 25C34.5 29.4783 34.5 31.7175 33.1088 33.1088C31.7175 34.5 29.4783 34.5 25 34.5C20.5217 34.5 18.2825 34.5 16.8912 33.1088C15.5 31.7175 15.5 29.4783 15.5 25Z" stroke="white" stroke-width="2" stroke-linecap="round" stroke-linejoin="round"/>
<defs>
<linearGradient id="paint0_linear_8813_57488" x1="-4.55975" y1="-39.7959" x2="62.2768" y2="-29.3186" gradientUnits="userSpaceOnUse">
<stop stop-color="#FF7220"/>
<stop offset="1" stop-color="#FFB600"/>
</linearGradient>
</defs>
</svg>
