<svg width="50" height="50" viewBox="0 0 50 50" fill="none" xmlns="http://www.w3.org/2000/svg">
<rect width="50" height="50" rx="12" fill="url(#paint0_linear_8813_57516)"/>
<path d="M25 35C30.5228 35 35 30.5228 35 25C35 19.4772 30.5228 15 25 15C19.4772 15 15 19.4772 15 25C15 30.5228 19.4772 35 25 35Z" stroke="white" stroke-width="2"/>
<path d="M20.5 30C22.8317 27.5578 27.1432 27.4428 29.5 30M27.4951 22.5C27.4951 23.8807 26.3742 25 24.9915 25C23.6089 25 22.488 23.8807 22.488 22.5C22.488 21.1193 23.6089 20 24.9915 20C26.3742 20 27.4951 21.1193 27.4951 22.5Z" stroke="white" stroke-width="2" stroke-linecap="round"/>
<defs>
<linearGradient id="paint0_linear_8813_57516" x1="-4.55975" y1="-39.7959" x2="62.2768" y2="-29.3186" gradientUnits="userSpaceOnUse">
<stop stop-color="#FF7220"/>
<stop offset="1" stop-color="#FFB600"/>
</linearGradient>
</defs>
</svg>
