<svg width="50" height="50" viewBox="0 0 50 50" fill="none" xmlns="http://www.w3.org/2000/svg">
<rect width="50" height="50" rx="16" fill="url(#paint0_linear_8813_58430)"/>
<path d="M30.25 15.75H19.75C18.4902 15.75 17.282 16.2504 16.3912 17.1412C15.5004 18.032 15 19.2402 15 20.5V29.5C15 30.1238 15.1229 30.7415 15.3616 31.3177C15.6003 31.894 15.9502 32.4177 16.3912 32.8588C17.282 33.7496 18.4902 34.25 19.75 34.25H30.25C31.509 34.2474 32.7156 33.7461 33.6058 32.8558C34.4961 31.9656 34.9974 30.759 35 29.5V20.5C34.9974 19.241 34.4961 18.0344 33.6058 17.1442C32.7156 16.2539 31.509 15.7526 30.25 15.75ZM26.6 24.07C26.108 24.3506 25.5514 24.4981 24.985 24.4981C24.4186 24.4981 23.862 24.3506 23.37 24.07L16.52 20.14C16.6086 19.3453 16.987 18.6111 17.5829 18.078C18.1788 17.5448 18.9504 17.25 19.75 17.25H30.25C31.049 17.2522 31.8194 17.5477 32.4148 18.0805C33.0103 18.6133 33.3893 19.3462 33.48 20.14L26.6 24.07Z" fill="white"/>
<defs>
<linearGradient id="paint0_linear_8813_58430" x1="-4.55975" y1="-39.7959" x2="62.2768" y2="-29.3186" gradientUnits="userSpaceOnUse">
<stop stop-color="#FF7220"/>
<stop offset="1" stop-color="#FFB600"/>
</linearGradient>
</defs>
</svg>
